<svg width="18" height="12" viewBox="0 0 18 12" fill="none" xmlns="http://www.w3.org/2000/svg">
<path d="M6.33282 9.91929L2.41382 6.00029C2.22629 5.81282 1.97198 5.70751 1.70682 5.70751C1.44165 5.70751 1.18735 5.81282 0.999818 6.00029C0.812347 6.18782 0.707031 6.44213 0.707031 6.70729C0.707031 6.97245 0.812347 7.22676 0.999818 7.41429L4.91882 11.3333C5.10455 11.5191 5.32506 11.6665 5.56776 11.767C5.81047 11.8676 6.07061 11.9194 6.33332 11.9194C6.59603 11.9194 6.85617 11.8676 7.09887 11.767C7.34158 11.6665 7.56209 11.5191 7.74782 11.3333L16.9998 2.0813C17.1873 1.89377 17.2926 1.63946 17.2926 1.3743C17.2926 1.10913 17.1873 0.854825 16.9998 0.667298C16.8123 0.479827 16.558 0.374512 16.2928 0.374512C16.0277 0.374512 15.7733 0.479827 15.5858 0.667298L6.33282 9.91929Z" fill="#303030"/>
</svg>
