<svg width="8" height="8" viewBox="0 0 8 8" fill="none" xmlns="http://www.w3.org/2000/svg">
<path d="M0.835779 8C0.62334 8 0.410902 7.92176 0.243187 7.7541C-0.0810622 7.42997 -0.0810622 6.89347 0.243187 6.56933L6.57163 0.243102C6.89588 -0.0810339 7.43256 -0.0810339 7.75681 0.243102C8.08106 0.567237 8.08106 1.10374 7.75681 1.42787L1.42837 7.7541C1.27184 7.92176 1.04822 8 0.835779 8Z" fill="#707070"/>
<path d="M7.16422 8C6.95178 8 6.73934 7.92176 6.57163 7.7541L0.243187 1.42787C-0.0810622 1.10374 -0.0810622 0.567237 0.243187 0.243102C0.567435 -0.0810339 1.10412 -0.0810339 1.42837 0.243102L7.75681 6.56933C8.08106 6.89347 8.08106 7.42997 7.75681 7.7541C7.5891 7.92176 7.37666 8 7.16422 8Z" fill="#707070"/>
</svg>
