<svg width="183" height="119" viewBox="0 0 183 119" fill="none" xmlns="http://www.w3.org/2000/svg">
<g clip-path="url(#clip0_312_322)">
<path d="M183 55.8701C183 60.6045 181.216 65.1646 178.004 68.6388C174.792 72.1129 170.39 74.2451 165.676 74.6091C165.517 74.6211 165.356 74.6332 165.195 74.6404V56.8026C165.195 56.6243 165.155 56.4483 165.078 56.2873C165.002 56.1264 164.89 55.9846 164.752 55.8725C164.736 55.8561 164.718 55.8415 164.699 55.8291C164.681 55.8149 164.663 55.802 164.644 55.7906C164.475 55.6816 164.281 55.6168 164.08 55.6021C163.88 55.5874 163.679 55.6232 163.496 55.7062L163.296 55.2677C163.514 55.1681 163.752 55.1164 163.992 55.1159L150.286 43.2923C150.392 43.1718 150.503 43.0538 150.613 42.9357C153.197 40.2082 156.538 38.3192 160.205 37.513C163.872 36.7067 167.696 37.0202 171.183 38.4129C174.671 39.8056 177.661 42.2135 179.767 45.3255C181.874 48.4375 183 52.1105 183 55.8701Z" fill="#F2F2F2"/>
<path d="M4.75882 68.6854C4.69066 68.3366 4.69969 67.9772 4.78525 67.6324C4.87082 67.2875 5.03085 66.9657 5.25407 66.6894C5.47729 66.4132 5.75827 66.1894 6.07722 66.0337C6.39617 65.878 6.74533 65.7942 7.10011 65.7883L17.9186 52.8916L20.6195 56.3497L9.59393 68.3523C9.56441 68.9498 9.31704 69.5157 8.89869 69.9427C8.48035 70.3698 7.92011 70.6284 7.32412 70.6694C6.72813 70.7105 6.13781 70.5312 5.66501 70.1655C5.19221 69.7998 4.86979 69.2732 4.75883 68.6854H4.75882Z" fill="#FFB8B8"/>
<path d="M56.1321 52.8119C56.0563 52.9216 55.9894 53.037 55.9318 53.1573L44.119 54.8482L42.3252 52.5677L38.5345 54.8288L42.0978 60.3922L56.5046 56.1393C56.8848 56.4839 57.3608 56.7045 57.8692 56.7716C58.3776 56.8388 58.8944 56.7494 59.3508 56.5152C59.8072 56.2811 60.1817 55.9134 60.4243 55.461C60.667 55.0085 60.7663 54.4929 60.7092 53.9825C60.652 53.4722 60.4411 52.9914 60.1044 52.604C59.7677 52.2166 59.3213 51.9411 58.8244 51.814C58.3275 51.6869 57.8038 51.7143 57.3229 51.8926C56.8419 52.0708 56.4266 52.3915 56.1321 52.8119Z" fill="#FFB8B8"/>
<path d="M35.954 95.9018L38.0444 97.986L47.0675 90.9039L43.9823 87.8276L35.954 95.9018Z" fill="#FFB8B8"/>
<path d="M40.1432 103.95L33.5735 97.399L36.1009 94.8571L40.1323 98.8768C40.4656 99.2092 40.7303 99.6041 40.9113 100.039C41.0922 100.474 41.1859 100.94 41.1869 101.411C41.1879 101.882 41.0962 102.349 40.9172 102.784C40.7381 103.22 40.4751 103.616 40.1432 103.95L40.1432 103.95Z" fill="#2F2E41"/>
<path d="M24.8424 115.894H27.7923L29.1956 104.5H24.8419L24.8424 115.894Z" fill="#FFB8B8"/>
<path d="M33.4814 118.637L24.2104 118.637L24.2102 115.05L29.8993 115.05C30.3697 115.05 30.8355 115.143 31.2701 115.323C31.7047 115.503 32.0996 115.767 32.4322 116.1C32.7648 116.433 33.0287 116.829 33.2087 117.264C33.3888 117.699 33.4814 118.166 33.4814 118.637Z" fill="#2F2E41"/>
<path d="M24.2012 107.094L20.8411 82.2786C20.3153 78.5284 20.4784 74.7135 21.3226 71.0221C22.0121 68.0555 22.9436 66.0006 24.0913 64.9147C24.2724 64.7445 24.5043 64.6385 24.7513 64.6129L35.8452 63.4556C36.0589 63.4337 36.2744 63.4731 36.4666 63.5693C36.6587 63.6655 36.8196 63.8144 36.9304 63.9986L37.2951 64.6072C37.3394 64.6811 37.3751 64.7598 37.4015 64.8418L39.7471 72.1234C39.7821 72.2334 39.8386 72.3354 39.9133 72.4234C39.988 72.5113 40.0794 72.5835 40.1822 72.6358C43.8752 74.5239 55.871 80.8975 55.1845 83.6474C54.5395 86.2312 48.5005 90.4206 46.6649 91.6429C46.478 91.768 46.2579 91.834 46.033 91.8323C45.8082 91.8306 45.5891 91.7613 45.4041 91.6333L42.3571 89.5457C42.2084 89.4438 42.0862 89.3077 42.0007 89.1487C41.9152 88.9898 41.869 88.8127 41.8658 88.6322C41.8627 88.4517 41.9027 88.2731 41.9826 88.1113C42.0625 87.9495 42.1799 87.8092 42.325 87.7021L44.4262 86.1517C44.5547 86.0568 44.655 85.9285 44.7163 85.7808C44.7775 85.633 44.7974 85.4714 44.7737 85.3132C44.75 85.155 44.6837 85.0062 44.5819 84.883C44.4801 84.7597 44.3467 84.6665 44.1959 84.6135L32.9115 80.6485C32.7848 80.6039 32.6496 80.5891 32.5162 80.6051C32.3829 80.6211 32.255 80.6675 32.1424 80.7407C32.0298 80.8139 31.9354 80.9121 31.8666 81.0275C31.7978 81.143 31.7563 81.2727 31.7454 81.4067L29.6647 106.873C29.6417 107.146 29.5208 107.401 29.3243 107.592C29.1278 107.782 28.8689 107.895 28.5957 107.91L25.3764 108.071C25.3568 108.072 25.3374 108.072 25.318 108.072C25.0447 108.073 24.7805 107.975 24.5749 107.794C24.3693 107.614 24.2364 107.365 24.2012 107.094Z" fill="#2F2E41"/>
<path d="M29.2891 42.9101C32.553 42.9101 35.1989 40.2605 35.1989 36.9921C35.1989 33.7236 32.553 31.074 29.2891 31.074C26.0253 31.074 23.3794 33.7236 23.3794 36.9921C23.3794 40.2605 26.0253 42.9101 29.2891 42.9101Z" fill="#FFB8B8"/>
<path d="M23.7616 63.9009L19.4115 48.0064L19.486 47.9561C19.5794 47.893 28.9557 41.6929 39.9335 46.6894L40.1325 46.8037L37.5549 63.3011C37.4986 63.6776 37.313 64.0227 37.0299 64.2768C36.7468 64.5308 36.3841 64.6781 36.0043 64.693L25.3973 65.1016C25.3759 65.1023 25.3546 65.1028 25.3334 65.1028C24.9758 65.1036 24.628 64.9863 24.3438 64.769C24.0596 64.5517 23.855 64.2465 23.7616 63.9009Z" fill="#CCCCCC"/>
<path d="M19.2459 58.354L15.6229 54.1818C15.4484 53.9813 15.3502 53.7256 15.3455 53.4597C15.3408 53.1938 15.43 52.9348 15.5973 52.7283L19.3848 48.043L22.2922 48.8371L23.8336 54.2397L21.0231 58.2605C20.9251 58.4016 20.796 58.5183 20.6459 58.6016C20.4958 58.685 20.3286 58.7327 20.1572 58.7412C20.1369 58.7422 20.1167 58.7427 20.0966 58.7427C19.9352 58.743 19.7757 58.7084 19.6289 58.6414C19.4821 58.5743 19.3514 58.4762 19.2459 58.354Z" fill="#CCCCCC"/>
<path d="M39.2806 57.4849C39.1092 57.4765 38.942 57.4287 38.7918 57.3454C38.6417 57.262 38.5127 57.1453 38.4147 57.0042L35.6041 52.9834L36.956 47.2963L39.6329 46.5652L40.1324 46.8039L43.8404 51.472C44.0077 51.6785 44.0969 51.9376 44.0922 52.2034C44.0875 52.4693 43.9893 52.725 43.8148 52.9255L40.1918 57.0977C40.0863 57.22 39.9557 57.318 39.8089 57.3851C39.6621 57.4522 39.5025 57.4867 39.3412 57.4864C39.3211 57.4864 39.3008 57.4859 39.2806 57.4849Z" fill="#CCCCCC"/>
<path d="M165.195 55.6218C165.197 55.6818 165.176 55.7404 165.137 55.7857C165.095 55.8342 165.036 55.8643 164.973 55.8693C164.909 55.8742 164.846 55.8537 164.798 55.8122L163.992 55.1158L150.286 43.2922L111.846 10.1249C111.626 9.93689 111.347 9.83378 111.058 9.83423C110.77 9.83467 110.491 9.93863 110.272 10.1273L58.5063 55.164L58.0395 55.5688C58.0216 55.5847 58.0013 55.5977 57.9794 55.6073C57.9409 55.6244 57.8985 55.6311 57.8566 55.6266C57.7965 55.6202 57.7409 55.5919 57.7002 55.5471C57.6793 55.5234 57.6633 55.4958 57.6531 55.4659C57.6429 55.436 57.6386 55.4043 57.6406 55.3727C57.6426 55.3412 57.6508 55.3103 57.6648 55.2819C57.6787 55.2536 57.6981 55.2282 57.7219 55.2074L57.7868 55.1495L109.957 9.76345C110.263 9.49978 110.654 9.3544 111.058 9.35352C111.462 9.35264 111.853 9.4963 112.161 9.75863L150.613 42.9356L165.11 55.4459C165.136 55.4679 165.156 55.4948 165.171 55.5251C165.185 55.5553 165.193 55.5883 165.195 55.6218Z" fill="#3F3D56"/>
<path d="M135.967 62.7373L135.334 60.9928L133.154 54.969L128.458 41.9984L123.207 27.5002L113.739 1.34949C113.553 0.839525 113.173 0.424125 112.682 0.194253C112.191 -0.0356199 111.629 -0.0612293 111.119 0.123032L56.3769 19.9993C55.8675 20.1853 55.4525 20.566 55.2229 21.0578C54.9934 21.5497 54.9679 22.1127 55.1522 22.6233L68.576 59.6965L68.8046 60.3302L82.8949 66.7251L86.8554 68.5226L87.4979 68.8142L104.266 76.4259L104.916 76.1898L115.914 72.1972L132.505 66.1733L134.74 65.3613C135.25 65.1755 135.665 64.795 135.895 64.3032C136.125 63.8114 136.151 63.2483 135.967 62.7373Z" fill="#E6E6E6"/>
<path d="M113.012 31.8566C112.739 31.1061 112.18 30.4946 111.458 30.1563C110.735 29.818 109.908 29.7804 109.158 30.0518L87.4977 37.919L77.0383 41.7164C76.6667 41.8509 76.3251 42.0575 76.0332 42.3243C75.7414 42.591 75.5048 42.9128 75.3372 43.2712C75.1696 43.6295 75.0741 44.0175 75.0563 44.4128C75.0385 44.8081 75.0986 45.2031 75.2333 45.5751C75.368 45.9472 75.5746 46.289 75.8413 46.581C76.1079 46.873 76.4295 47.1096 76.7875 47.2771C77.1455 47.4446 77.533 47.5398 77.9278 47.5573C78.3226 47.5747 78.717 47.5141 79.0883 47.3788L87.4977 44.326L111.21 35.7167C111.96 35.4432 112.57 34.8833 112.908 34.1597C113.246 33.4361 113.284 32.6078 113.012 31.8566Z" fill="white"/>
<path d="M116.826 42.391C116.553 41.6405 115.994 41.029 115.272 40.6907C114.549 40.3524 113.722 40.3148 112.972 40.5863L109.302 41.9187L87.4978 49.8365L80.8521 52.2484C80.1027 52.5212 79.492 53.0808 79.1544 53.8042C78.8167 54.5276 78.7797 55.3556 79.0513 56.1064C79.323 56.8571 79.8812 57.4691 80.6033 57.8079C81.3254 58.1467 82.1522 58.1846 82.9022 57.9133L87.4978 56.2434L115.024 46.2487C115.087 46.227 115.147 46.2005 115.207 46.174C115.906 45.8669 116.462 45.3052 116.763 44.6027C117.063 43.9003 117.086 43.1096 116.826 42.391Z" fill="white"/>
<path d="M120.681 53.0365C120.408 52.2861 119.85 51.6746 119.127 51.3363C118.405 50.9979 117.578 50.9603 116.829 51.2317L106.538 54.9689L98.5708 57.8628L87.4977 61.8819L84.7067 62.8963C84.0616 63.1316 83.5161 63.5804 83.1603 64.1684C82.8046 64.7564 82.66 65.4484 82.7504 66.1299C82.778 66.3327 82.8263 66.5322 82.8948 66.7251L86.8553 68.5226L87.4977 68.2889H87.5025L107.596 60.9928L118.879 56.8966C119.628 56.6237 120.24 56.0638 120.577 55.34C120.915 54.6162 120.953 53.7877 120.681 53.0365H120.681Z" fill="white"/>
<path d="M98.1283 21.5004C97.8552 20.7499 97.2961 20.1384 96.5735 19.8001C95.8509 19.4618 95.0238 19.4242 94.2736 19.6956L81.8338 24.2111C81.0844 24.4839 80.4737 25.0434 80.1361 25.7668C79.7984 26.4902 79.7613 27.3183 80.033 28.069C80.3047 28.8198 80.8629 29.4318 81.585 29.7706C82.3071 30.1094 83.1339 30.1473 83.8838 29.8759L87.8204 28.4471L90.4261 27.5001L96.3261 25.358C97.0754 25.0851 97.686 24.5257 98.0239 23.8024C98.3617 23.0792 98.3993 22.2513 98.1283 21.5004Z" fill="white"/>
<path d="M147.772 27.5002H89.543C89.1996 27.5006 88.8618 27.5875 88.5607 27.753C88.2596 27.9185 88.005 28.1572 87.8203 28.4472C87.6092 28.7755 87.4972 29.1579 87.4978 29.5484V68.8142L104.266 76.4259L106.629 77.4982L110.361 79.1921C110.58 79.291 110.817 79.3421 111.056 79.3421C111.296 79.3421 111.533 79.291 111.752 79.1921L115.484 77.4982L127.163 72.1972L138.049 67.2552L149.817 61.9157V29.5484C149.817 29.0053 149.601 28.4845 149.217 28.1005C148.834 27.7165 148.314 27.5006 147.772 27.5002Z" fill="#6C63FF"/>
<path d="M135.741 54.969H101.574C100.797 54.9694 100.05 55.271 99.4905 55.8105C98.9307 56.3499 98.6012 57.0854 98.5709 57.8629C98.5669 57.9021 98.5653 57.9415 98.5661 57.9809C98.5672 58.7794 98.8845 59.5448 99.4483 60.1094C100.012 60.674 100.776 60.9917 101.574 60.9928H135.741C136.539 60.9928 137.304 60.6755 137.868 60.1107C138.432 59.5458 138.749 58.7797 138.749 57.9809C138.749 57.1821 138.432 56.416 137.868 55.8512C137.304 55.2863 136.539 54.969 135.741 54.969Z" fill="white"/>
<path d="M137.687 66.8914C137.145 66.4268 136.455 66.172 135.741 66.1733H101.574C100.776 66.1733 100.011 66.4907 99.4469 67.0555C98.8828 67.6204 98.5659 68.3865 98.5659 69.1853C98.5659 69.9841 98.8828 70.7502 99.4469 71.315C100.011 71.8799 100.776 72.1972 101.574 72.1972H127.163L138.048 67.2552C137.939 67.124 137.818 67.0022 137.687 66.8914Z" fill="white"/>
<path d="M106.629 77.498L110.361 79.192C110.58 79.2908 110.817 79.342 111.056 79.342C111.296 79.342 111.533 79.2908 111.752 79.192L115.484 77.498H106.629Z" fill="white"/>
<path d="M128.099 42.1284C127.887 41.5486 127.503 41.0479 126.998 40.6941C126.492 40.3403 125.891 40.1504 125.274 40.1501H112.04C111.463 40.1507 110.897 40.3177 110.412 40.6313C109.926 40.9449 109.541 41.3919 109.302 41.9187C109.124 42.3089 109.032 42.733 109.033 43.1621C109.034 43.9605 109.351 44.726 109.915 45.2906C110.479 45.8552 111.243 46.1729 112.04 46.174H125.274C125.758 46.174 126.235 46.0572 126.664 45.8333C127.093 45.6095 127.462 45.2852 127.739 44.8882C128.016 44.4911 128.194 44.0329 128.257 43.5524C128.319 43.072 128.265 42.5835 128.099 42.1284Z" fill="white"/>
<path d="M125.996 72.1972L114.317 77.4982L111.552 78.7536C111.396 78.8239 111.227 78.8602 111.056 78.8602C110.886 78.8602 110.717 78.8239 110.561 78.7536L107.796 77.4982H106.629L110.361 79.1921C110.58 79.291 110.817 79.3421 111.056 79.3421C111.296 79.3421 111.533 79.291 111.752 79.1921L115.484 77.4982L127.163 72.1972H125.996ZM125.996 72.1972L114.317 77.4982L111.552 78.7536C111.396 78.8239 111.227 78.8602 111.056 78.8602C110.886 78.8602 110.717 78.8239 110.561 78.7536L107.796 77.4982H106.629L110.361 79.1921C110.58 79.291 110.817 79.3421 111.056 79.3421C111.296 79.3421 111.533 79.291 111.752 79.1921L115.484 77.4982L127.163 72.1972H125.996ZM125.996 72.1972L114.317 77.4982L111.552 78.7536C111.396 78.8239 111.227 78.8602 111.056 78.8602C110.886 78.8602 110.717 78.8239 110.561 78.7536L107.796 77.4982H106.629L110.361 79.1921C110.58 79.291 110.817 79.3421 111.056 79.3421C111.296 79.3421 111.533 79.291 111.752 79.1921L115.484 77.4982L127.163 72.1972H125.996ZM165.195 55.622C165.106 55.5336 165.008 55.4544 164.903 55.3859C164.667 55.2324 164.396 55.1411 164.115 55.1205C163.834 55.0998 163.552 55.1505 163.296 55.2678L137.688 66.8914L125.996 72.1972L114.317 77.4982L111.552 78.7536C111.396 78.8239 111.227 78.8602 111.056 78.8602C110.886 78.8602 110.717 78.8239 110.561 78.7536L107.796 77.4982L104.916 76.1898L87.5027 68.2889L87.4979 68.2865L82.7505 66.13L68.576 59.6965L58.8167 55.2678C58.7174 55.2218 58.6133 55.187 58.5063 55.1642C58.2706 55.1052 58.0247 55.1003 57.7868 55.1497C57.4063 55.2277 57.0643 55.4347 56.8184 55.7358C56.5725 56.0369 56.4378 56.4137 56.437 56.8027V117.313C56.4375 117.761 56.6151 118.189 56.9309 118.506C57.2466 118.822 57.6748 119 58.1213 119H163.992C164.438 119 164.866 118.822 165.182 118.506C165.498 118.189 165.675 117.761 165.676 117.313V56.8027C165.677 56.3611 165.504 55.9369 165.195 55.622V55.622ZM165.195 117.313C165.195 117.633 165.068 117.939 164.842 118.165C164.617 118.391 164.311 118.518 163.992 118.518H58.1213C57.8023 118.518 57.4963 118.391 57.2707 118.165C57.0452 117.939 56.9184 117.633 56.9182 117.313V56.8027C56.9183 56.6013 56.9688 56.4032 57.0651 56.2264C57.1613 56.0496 57.3003 55.8998 57.4692 55.7907C57.5881 55.7144 57.7191 55.659 57.8566 55.6268C57.8971 55.618 57.9381 55.6116 57.9794 55.6075C58.0264 55.6007 58.0738 55.5975 58.1213 55.5979C58.2924 55.5981 58.4614 55.6351 58.617 55.7063L68.8045 60.3302L82.8949 66.7251L86.8554 68.5227L87.4979 68.8142L104.266 76.4259L106.629 77.4982L110.361 79.1921C110.58 79.291 110.817 79.3421 111.056 79.3421C111.296 79.3421 111.533 79.291 111.752 79.1921L115.484 77.4982L127.163 72.1972L138.049 67.2552L163.496 55.7063C163.679 55.6232 163.88 55.5874 164.08 55.6022C164.281 55.6169 164.475 55.6817 164.644 55.7907C164.663 55.8021 164.681 55.815 164.699 55.8292C164.718 55.8416 164.736 55.8561 164.752 55.8726C164.89 55.9847 165.002 56.1264 165.079 56.2874C165.155 56.4483 165.195 56.6244 165.195 56.8027L165.195 117.313ZM125.996 72.1972L114.317 77.4982L111.552 78.7536C111.396 78.8239 111.227 78.8602 111.056 78.8602C110.886 78.8602 110.717 78.8239 110.561 78.7536L107.796 77.4982H106.629L110.361 79.1921C110.58 79.291 110.817 79.3421 111.056 79.3421C111.296 79.3421 111.533 79.291 111.752 79.1921L115.484 77.4982L127.163 72.1972H125.996ZM125.996 72.1972L114.317 77.4982L111.552 78.7536C111.396 78.8239 111.227 78.8602 111.056 78.8602C110.886 78.8602 110.717 78.8239 110.561 78.7536L107.796 77.4982H106.629L110.361 79.1921C110.58 79.291 110.817 79.3421 111.056 79.3421C111.296 79.3421 111.533 79.291 111.752 79.1921L115.484 77.4982L127.163 72.1972H125.996ZM86.8554 68.5227L87.4979 68.8142V68.2889L86.8554 68.5227ZM125.996 72.1972L114.317 77.4982L111.552 78.7536C111.396 78.8239 111.227 78.8602 111.056 78.8602C110.886 78.8602 110.717 78.8239 110.561 78.7536L107.796 77.4982H106.629L110.361 79.1921C110.58 79.291 110.817 79.3421 111.056 79.3421C111.296 79.3421 111.533 79.291 111.752 79.1921L115.484 77.4982L127.163 72.1972H125.996Z" fill="#3F3D56"/>
<path d="M42.2341 119H15.0447C14.9809 119 14.9197 118.975 14.8745 118.929C14.8294 118.884 14.8041 118.823 14.8041 118.759C14.8041 118.695 14.8294 118.634 14.8745 118.589C14.9197 118.543 14.9809 118.518 15.0447 118.518H42.2341C42.2979 118.518 42.3591 118.543 42.4042 118.589C42.4494 118.634 42.4747 118.695 42.4747 118.759C42.4747 118.823 42.4494 118.884 42.4042 118.929C42.3591 118.975 42.2979 119 42.2341 119Z" fill="#3F3D56"/>
<path d="M27.042 41.32C26.5981 41.0944 26.229 40.7449 25.9794 40.3136C25.7298 39.8823 25.6103 39.3878 25.6355 38.89C25.6607 38.3921 25.8295 37.9123 26.1214 37.5085C26.4133 37.1047 26.8158 36.7942 27.2802 36.6148C29.0635 35.9256 31.0627 37.3321 32.932 36.9322C34.7952 36.5337 35.873 34.3031 35.4282 32.4479C34.9835 30.5927 33.3649 29.1954 31.58 28.528C30.4144 28.0933 29.166 27.9266 27.9273 28.0403C26.6885 28.154 25.4912 28.5452 24.4239 29.1849C23.3676 29.8434 22.4878 30.7502 21.8611 31.8267C21.2345 32.9031 20.8798 34.1165 20.828 35.3615C20.8037 36.6075 21.1077 37.838 21.7094 38.9289C22.3111 40.0199 23.1891 40.9328 24.2552 41.5758C24.7303 41.8501 25.2833 42.0703 25.8177 41.9468C26.2564 41.8041 26.6696 41.5925 27.042 41.32Z" fill="#2F2E41"/>
<path d="M25.127 29.0409C23.5544 26.9522 21.4317 25.2363 18.9616 24.3856C16.4914 23.5349 13.6687 23.6032 11.3488 24.8054C9.02895 26.0076 7.29887 28.3953 7.11828 31.0048C6.81773 35.348 10.5236 39.0398 10.9039 43.3766C11.0244 44.7513 10.8016 46.1343 10.2555 47.4013C9.70945 48.6682 8.85724 49.7792 7.77564 50.6343C6.69405 51.4893 5.41706 52.0614 4.05969 52.2992C2.70232 52.537 1.3072 52.4329 0 51.9963C0.931067 52.7638 2.01056 53.3302 3.17068 53.6599C4.33079 53.9896 5.54646 54.0755 6.74131 53.9122C7.9342 53.7329 9.07231 53.29 10.0731 52.6156C11.0739 51.9413 11.9122 51.0523 12.5274 50.0133C13.3615 48.5621 13.7039 46.8765 13.837 45.2074C14.0459 42.5684 13.7629 39.9135 13.0026 37.3781C12.5869 35.9947 12.0232 34.5711 12.2868 33.1508C12.437 32.4121 12.8007 31.7338 13.3327 31.2003C13.8646 30.6668 14.5414 30.3016 15.2789 30.1501C16.4708 29.9264 17.6893 30.2907 18.8274 30.7099C19.9654 31.1291 21.1128 31.6143 22.325 31.642C23.5373 31.6698 24.8577 31.1141 25.3262 29.9941L25.127 29.0409Z" fill="#2F2E41"/>
</g>
<defs>
<clipPath id="clip0_312_322">
<rect width="183" height="119" fill="white"/>
</clipPath>
</defs>
</svg>
