<svg width="96" height="119" viewBox="0 0 96 119" fill="none" xmlns="http://www.w3.org/2000/svg">
<g clip-path="url(#clip0_744_1326)">
<path d="M54.4996 51.9658C56.314 51.9658 57.7848 50.4904 57.7848 48.6704C57.7848 46.8504 56.314 45.375 54.4996 45.375C52.6852 45.375 51.2144 46.8504 51.2144 48.6704C51.2144 50.4904 52.6852 51.9658 54.4996 51.9658Z" fill="#6C63FF"/>
<path d="M54.1739 49.9272C54.1 49.9273 54.028 49.9033 53.9689 49.8589L53.9652 49.8561L53.1932 49.2632C53.1573 49.2357 53.1272 49.2015 53.1045 49.1623C53.0818 49.1232 53.0671 49.08 53.0611 49.0351C53.0552 48.9902 53.0581 48.9446 53.0697 48.9009C53.0813 48.8572 53.1014 48.8162 53.1288 48.7803C53.1563 48.7443 53.1905 48.7142 53.2296 48.6916C53.2686 48.6689 53.3118 48.6543 53.3565 48.6484C53.4012 48.6425 53.4467 48.6455 53.4903 48.6573C53.5338 48.669 53.5747 48.6893 53.6104 48.7169L54.1105 49.1016L55.2922 47.5556C55.3196 47.5198 55.3538 47.4897 55.3928 47.4671C55.4318 47.4444 55.4749 47.4298 55.5195 47.4239C55.5642 47.4179 55.6096 47.4209 55.6531 47.4326C55.6966 47.4443 55.7374 47.4644 55.7731 47.4919L55.7658 47.5019L55.7733 47.4921C55.8454 47.5477 55.8926 47.6297 55.9045 47.7201C55.9164 47.8105 55.8921 47.902 55.8368 47.9745L54.4468 49.7929C54.4146 49.8348 54.3733 49.8687 54.326 49.892C54.2786 49.9153 54.2266 49.9273 54.1739 49.9272V49.9272Z" fill="white"/>
<path d="M54.4996 61.5986C56.314 61.5986 57.7848 60.1232 57.7848 58.3032C57.7848 56.4832 56.314 55.0078 54.4996 55.0078C52.6852 55.0078 51.2144 56.4832 51.2144 58.3032C51.2144 60.1232 52.6852 61.5986 54.4996 61.5986Z" fill="#6C63FF"/>
<path d="M54.1739 59.56C54.1 59.5601 54.028 59.5361 53.9689 59.4917L53.9652 59.4889L53.1932 58.896C53.1573 58.8685 53.1272 58.8343 53.1045 58.7951C53.0818 58.756 53.0671 58.7128 53.0611 58.6679C53.0552 58.6231 53.0581 58.5775 53.0697 58.5337C53.0813 58.49 53.1014 58.449 53.1288 58.4131C53.1563 58.3771 53.1905 58.347 53.2296 58.3244C53.2686 58.3017 53.3118 58.2871 53.3565 58.2812C53.4012 58.2753 53.4467 58.2783 53.4903 58.2901C53.5338 58.3019 53.5747 58.3221 53.6104 58.3497L54.1105 58.7344L55.2922 57.1884C55.3196 57.1526 55.3538 57.1225 55.3928 57.0999C55.4318 57.0773 55.4749 57.0626 55.5195 57.0567C55.5642 57.0508 55.6096 57.0537 55.6531 57.0654C55.6966 57.0771 55.7374 57.0973 55.7731 57.1247L55.7658 57.1347L55.7733 57.1249C55.8454 57.1805 55.8926 57.2625 55.9045 57.3529C55.9164 57.4434 55.8921 57.5348 55.8368 57.6073L54.4468 59.4257C54.4146 59.4676 54.3733 59.5015 54.326 59.5248C54.2786 59.5481 54.2266 59.5601 54.1739 59.56V59.56Z" fill="white"/>
<path d="M56.2685 72.7519C58.0829 72.7519 59.5537 71.2765 59.5537 69.4565C59.5537 67.6365 58.0829 66.1611 56.2685 66.1611C54.4541 66.1611 52.9833 67.6365 52.9833 69.4565C52.9833 71.2765 54.4541 72.7519 56.2685 72.7519Z" fill="#6C63FF"/>
<path d="M55.9428 70.7143C55.8689 70.7144 55.7969 70.6904 55.7378 70.646L55.7342 70.6432L54.9621 70.0503C54.9262 70.0228 54.8961 69.9886 54.8734 69.9494C54.8508 69.9103 54.836 69.8671 54.83 69.8222C54.8241 69.7773 54.827 69.7318 54.8386 69.688C54.8502 69.6443 54.8703 69.6033 54.8978 69.5674C54.9252 69.5314 54.9594 69.5013 54.9985 69.4787C55.0376 69.456 55.0807 69.4414 55.1254 69.4355C55.1702 69.4296 55.2156 69.4326 55.2592 69.4444C55.3028 69.4562 55.3436 69.4764 55.3793 69.504L55.8794 69.8887L57.0612 68.3427C57.0886 68.3069 57.1227 68.2768 57.1617 68.2542C57.2007 68.2316 57.2438 68.2169 57.2885 68.211C57.3331 68.2051 57.3785 68.208 57.422 68.2197C57.4655 68.2314 57.5063 68.2515 57.5421 68.279L57.5347 68.289L57.5422 68.2792C57.6144 68.3348 57.6615 68.4168 57.6734 68.5072C57.6853 68.5977 57.661 68.6891 57.6057 68.7616L56.2157 70.58C56.1835 70.6219 56.1422 70.6558 56.0949 70.6791C56.0476 70.7024 55.9955 70.7144 55.9428 70.7143V70.7143Z" fill="white"/>
<path d="M87.9471 96.9707C87.913 96.9707 87.8916 96.9699 87.8841 96.9694L83.8055 96.9699V96.3666H87.8988C87.9936 96.37 89.9272 96.4248 91.7088 94.2563C94.3637 91.0245 96.544 83.0242 91.8536 63.2634C85.5467 36.6922 90.8069 13.218 93.3612 4.35888C93.487 3.92058 93.5096 3.45893 93.427 3.0104C93.3444 2.56188 93.1589 2.13877 92.8852 1.7745C92.6116 1.41023 92.2572 1.11478 91.8502 0.911507C91.4431 0.708232 90.9945 0.602699 90.5398 0.603241H29.6283C29.1652 0.603863 28.7087 0.714004 28.296 0.924728C27.8833 1.13545 27.526 1.44082 27.2529 1.81604C26.1709 3.30911 24.686 6.17742 23.7567 11.3638L23.1649 11.2572C24.1143 5.95813 25.6475 3.00543 26.7665 1.4614C27.0954 1.00928 27.5259 0.641316 28.0232 0.387396C28.5204 0.133475 29.0703 0.000750997 29.6283 1.64177e-06H90.5398C91.0878 -0.000527313 91.6284 0.126767 92.1188 0.371827C92.6093 0.616887 93.0363 0.972999 93.3659 1.41203C93.6956 1.85106 93.919 2.36097 94.0184 2.90149C94.1179 3.44201 94.0907 3.99832 93.9389 4.52647C91.3978 13.3397 86.1648 36.692 92.4387 63.1237C97.195 83.1625 94.9084 91.3362 92.1528 94.6644C90.3352 96.8595 88.3325 96.9707 87.9471 96.9707Z" fill="#E6E6E6"/>
<path d="M76.9722 107.98C76.9381 107.98 76.9167 107.979 76.9092 107.978L72.8305 107.979V107.375H76.9239C77.0192 107.378 78.9523 107.434 80.7339 105.265C83.3888 102.033 85.5691 94.033 80.8786 74.2722C74.5717 47.701 79.832 24.2268 82.3863 15.3677C82.5121 14.9294 82.5346 14.4677 82.452 14.0192C82.3694 13.5707 82.184 13.1476 81.9103 12.7833C81.6367 12.419 81.2823 12.1236 80.8753 11.9203C80.4682 11.717 80.0196 11.6115 79.5649 11.612H18.6533C18.1902 11.6127 17.7338 11.7228 17.3211 11.9335C16.9084 12.1442 16.551 12.4496 16.278 12.8248C15.196 14.3179 13.711 17.1862 12.7818 22.3726L12.1899 22.266C13.1393 16.9669 14.6725 14.0142 15.7916 12.4702C16.1205 12.0181 16.551 11.6501 17.0482 11.3962C17.5455 11.1423 18.0954 11.0095 18.6533 11.0088H79.5649C80.1129 11.0083 80.6534 11.1356 81.1439 11.3806C81.6344 11.6257 82.0613 11.9818 82.391 12.4208C82.7207 12.8598 82.9441 13.3698 83.0435 13.9103C83.143 14.4508 83.1157 15.0071 82.964 15.5353C80.4229 24.3484 75.1898 47.7008 81.4637 74.1325C86.2201 94.1712 83.9335 102.345 81.1779 105.673C79.3602 107.868 77.3576 107.98 76.9722 107.98Z" fill="#CCCCCC"/>
<path d="M70.4884 85.1432C64.2136 58.7115 69.4472 35.3573 71.9895 26.5459C72.1409 26.0178 72.1678 25.4615 72.0682 24.9211C71.9687 24.3807 71.7453 23.8709 71.4157 23.4319C71.0861 22.9929 70.6593 22.6367 70.1691 22.3914C69.6788 22.1462 69.1384 22.0185 68.5905 22.0186H7.6776C7.11988 22.0191 6.57016 22.1516 6.07309 22.4053C5.57602 22.659 5.14562 23.0268 4.81685 23.4787C2.35799 26.8704 -2.74419 38.1178 2.95448 69.2391C6.00204 85.8884 5.95664 97.2398 4.96098 104.718C4.40238 108.928 3.54072 111.909 2.75977 113.92L2.67648 114.133C2.51199 114.539 2.42623 114.974 2.42377 115.413C2.41801 115.908 2.51706 116.399 2.71437 116.854C2.91169 117.308 3.20278 117.716 3.56848 118.049C3.80693 118.273 4.07682 118.461 4.36955 118.607C4.61259 118.731 4.86971 118.826 5.13533 118.888C5.40581 118.954 5.68328 118.987 5.9617 118.987H65.9346C65.9423 118.987 65.9624 118.989 65.9978 118.989C66.3819 118.989 68.3859 118.878 70.2029 116.683C72.9574 113.354 75.2444 105.182 70.4884 85.1432ZM69.7581 116.275C67.9765 118.444 66.0433 118.389 65.9498 118.386H5.9617C5.48143 118.386 5.0085 118.268 4.58426 118.042C4.16001 117.816 3.79737 117.49 3.52801 117.091C3.29109 116.746 3.13195 116.353 3.06169 115.941C2.99143 115.528 3.01174 115.104 3.12118 114.7C3.14984 114.583 3.187 114.468 3.23236 114.356C4.12436 112.056 4.78553 109.674 5.20604 107.243C6.63135 99.4477 6.89665 87.4195 3.54578 69.1301C-2.10982 38.2395 2.8913 27.1619 5.30204 23.8336C5.57555 23.4589 5.93307 23.154 6.34574 22.9435C6.75841 22.733 7.21465 22.6228 7.6776 22.6219H68.5905C69.045 22.6215 69.4933 22.7272 69.9001 22.9305C70.3069 23.1337 70.661 23.429 70.9345 23.7931C71.208 24.1572 71.3934 24.58 71.476 25.0283C71.5587 25.4766 71.5364 25.938 71.4108 26.3761C68.8559 35.2356 63.5971 58.7115 69.9047 85.2826C74.595 105.042 72.4141 113.042 69.7581 116.275Z" fill="#3F3D56"/>
<path d="M41.5506 50.7995H10.1677C9.52971 50.7995 8.91787 50.5453 8.46675 50.0928C8.01564 49.6403 7.76221 49.0265 7.76221 48.3866C7.76221 47.7466 8.01564 47.1329 8.46675 46.6804C8.91787 46.2279 9.52971 45.9736 10.1677 45.9736H41.5506C42.1886 45.9736 42.8004 46.2279 43.2516 46.6804C43.7027 47.1329 43.9561 47.7466 43.9561 48.3866C43.9561 49.0265 43.7027 49.6403 43.2516 50.0928C42.8004 50.5453 42.1886 50.7995 41.5506 50.7995V50.7995Z" fill="#CCCCCC"/>
<path d="M41.5506 61.1931H10.1677C9.52971 61.1931 8.91787 60.9388 8.46675 60.4863C8.01564 60.0338 7.76221 59.4201 7.76221 58.7801C7.76221 58.1402 8.01564 57.5264 8.46675 57.0739C8.91787 56.6214 9.52971 56.3672 10.1677 56.3672H41.5506C42.1886 56.3672 42.8004 56.6214 43.2516 57.0739C43.7027 57.5264 43.9561 58.1402 43.9561 58.7801C43.9561 59.4201 43.7027 60.0338 43.2516 60.4863C42.8004 60.9388 42.1886 61.1931 41.5506 61.1931V61.1931Z" fill="#CCCCCC"/>
<path d="M44.0777 71.8395H12.6948C12.0568 71.8395 11.445 71.5853 10.9939 71.1328C10.5427 70.6803 10.2893 70.0666 10.2893 69.4266C10.2893 68.7867 10.5427 68.1729 10.9939 67.7204C11.445 67.2679 12.0568 67.0137 12.6948 67.0137H44.0777C44.7157 67.0137 45.3275 67.2679 45.7787 67.7204C46.2298 68.1729 46.4832 68.7867 46.4832 69.4266C46.4832 70.0666 46.2298 70.6803 45.7787 71.1328C45.3275 71.5853 44.7157 71.8395 44.0777 71.8395V71.8395Z" fill="#CCCCCC"/>
<path d="M45.8467 82.9938H14.4637C13.8257 82.9938 13.2139 82.7396 12.7628 82.2871C12.3117 81.8346 12.0582 81.2209 12.0582 80.5809C12.0582 79.941 12.3117 79.3272 12.7628 78.8747C13.2139 78.4222 13.8257 78.168 14.4637 78.168H45.8467C46.4846 78.168 47.0965 78.4222 47.5476 78.8747C47.9987 79.3272 48.2521 79.941 48.2521 80.5809C48.2521 81.2209 47.9987 81.8346 47.5476 82.2871C47.0965 82.7396 46.4846 82.9938 45.8467 82.9938Z" fill="#CCCCCC"/>
<path d="M45.8599 32.0642H23.3085C22.9924 32.0645 22.6793 32.0023 22.3872 31.8812C22.095 31.7601 21.8296 31.5824 21.6059 31.3583C21.3823 31.1342 21.2049 30.8681 21.0839 30.5752C20.9628 30.2823 20.9005 29.9683 20.9005 29.6512C20.9005 29.3341 20.9628 29.0202 21.0839 28.7273C21.2049 28.4343 21.3823 28.1682 21.6059 27.9441C21.8296 27.72 22.095 27.5424 22.3872 27.4212C22.6793 27.3001 22.9924 27.238 23.3085 27.2383H45.8599C46.4979 27.2383 47.1097 27.4925 47.5608 27.945C48.012 28.3975 48.2654 29.0113 48.2654 29.6512C48.2654 30.2912 48.012 30.9049 47.5608 31.3574C47.1097 31.8099 46.4979 32.0642 45.8599 32.0642Z" fill="#6C63FF"/>
<path d="M58.2902 83.876C60.1046 83.876 61.5754 82.4006 61.5754 80.5806C61.5754 78.7606 60.1046 77.2852 58.2902 77.2852C56.4758 77.2852 55.005 78.7606 55.005 80.5806C55.005 82.4006 56.4758 83.876 58.2902 83.876Z" fill="#CCCCCC"/>
<path d="M47.3629 93.8933H15.9799C15.342 93.8933 14.7301 93.639 14.279 93.1865C13.8279 92.734 13.5745 92.1203 13.5745 91.4803C13.5745 90.8404 13.8279 90.2266 14.279 89.7741C14.7301 89.3216 15.342 89.0674 15.9799 89.0674H47.3629C48.0009 89.0674 48.6127 89.3216 49.0638 89.7741C49.5149 90.2266 49.7684 90.8404 49.7684 91.4803C49.7684 92.1203 49.5149 92.734 49.0638 93.1865C48.6127 93.639 48.0009 93.8933 47.3629 93.8933Z" fill="#CCCCCC"/>
<path d="M59.8065 94.7763C61.6208 94.7763 63.0917 93.3009 63.0917 91.4809C63.0917 89.6609 61.6208 88.1855 59.8065 88.1855C57.9921 88.1855 56.5212 89.6609 56.5212 91.4809C56.5212 93.3009 57.9921 94.7763 59.8065 94.7763Z" fill="#CCCCCC"/>
</g>
<defs>
<clipPath id="clip0_744_1326">
<rect width="96" height="119" fill="white"/>
</clipPath>
</defs>
</svg>
