<svg width="120" height="119" viewBox="0 0 120 119" fill="none" xmlns="http://www.w3.org/2000/svg">
<g clip-path="url(#clip0_32_770)">
<path d="M117.647 12.9019H60.8213C60.5777 12.9022 60.3365 12.8545 60.1113 12.7616C59.8862 12.6687 59.6816 12.5323 59.5093 12.3603C59.3369 12.1883 59.2002 11.984 59.1069 11.7591C59.0136 11.5343 58.9656 11.2932 58.9656 11.0498C58.9656 10.8064 59.0136 10.5654 59.1069 10.3405C59.2002 10.1156 59.3369 9.91137 59.5093 9.73936C59.6816 9.56735 59.8862 9.43098 60.1113 9.33804C60.3365 9.24511 60.5777 9.19744 60.8213 9.19776H117.647C117.891 9.19744 118.132 9.24511 118.357 9.33804C118.582 9.43098 118.787 9.56735 118.959 9.73936C119.132 9.91137 119.268 10.1156 119.362 10.3405C119.455 10.5654 119.503 10.8064 119.503 11.0498C119.503 11.2932 119.455 11.5343 119.362 11.7591C119.268 11.984 119.132 12.1883 118.959 12.3603C118.787 12.5323 118.582 12.6687 118.357 12.7616C118.132 12.8545 117.891 12.9022 117.647 12.9019Z" fill="#6C63FF"/>
<path d="M117.647 20.2204H60.8212C60.3301 20.2198 59.8593 20.0244 59.5122 19.6771C59.1652 19.3298 58.9702 18.8591 58.9702 18.3683C58.9702 17.8775 59.1652 17.4067 59.5122 17.0595C59.8593 16.7122 60.3301 16.5168 60.8212 16.5161H117.647C118.138 16.5168 118.609 16.7122 118.956 17.0595C119.303 17.4067 119.498 17.8775 119.498 18.3683C119.498 18.8591 119.303 19.3298 118.956 19.6771C118.609 20.0244 118.138 20.2198 117.647 20.2204Z" fill="#6C63FF"/>
<path d="M85.4539 27.5388H60.8212C60.3301 27.5382 59.8593 27.3427 59.5122 26.9955C59.1652 26.6482 58.9702 26.1774 58.9702 25.6866C58.9702 25.1958 59.1652 24.7251 59.5122 24.3778C59.8593 24.0305 60.3301 23.8351 60.8212 23.8345H85.4539C85.6975 23.8342 85.9388 23.8818 86.1639 23.9748C86.3891 24.0677 86.5937 24.2041 86.766 24.3761C86.9384 24.5481 87.0751 24.7524 87.1684 24.9773C87.2617 25.2022 87.3097 25.4432 87.3097 25.6866C87.3097 25.9301 87.2617 26.1711 87.1684 26.396C87.0751 26.6209 86.9384 26.8251 86.766 26.9972C86.5937 27.1692 86.3891 27.3056 86.1639 27.3985C85.9388 27.4914 85.6975 27.5391 85.4539 27.5388Z" fill="#6C63FF"/>
<path d="M117.647 54.5225H60.8211C60.3295 54.5225 59.8581 54.3274 59.5106 53.98C59.163 53.6327 58.9678 53.1616 58.9678 52.6704C58.9678 52.1792 59.163 51.7081 59.5106 51.3608C59.8581 51.0135 60.3295 50.8184 60.8211 50.8184H117.647C118.139 50.8184 118.61 51.0135 118.958 51.3608C119.305 51.7081 119.5 52.1792 119.5 52.6704C119.5 53.1616 119.305 53.6327 118.958 53.98C118.61 54.3274 118.139 54.5225 117.647 54.5225Z" fill="#E6E6E6"/>
<path d="M117.647 61.841H60.8211C60.3296 61.841 59.8582 61.6459 59.5106 61.2986C59.163 60.9512 58.9678 60.4801 58.9678 59.9889C58.9678 59.4977 59.163 59.0266 59.5106 58.6792C59.8582 58.3319 60.3296 58.1367 60.8211 58.1367H117.647C118.139 58.1367 118.61 58.3319 118.958 58.6792C119.305 59.0266 119.501 59.4977 119.501 59.9889C119.501 60.4801 119.305 60.9512 118.958 61.2986C118.61 61.6459 118.139 61.841 117.647 61.841Z" fill="#E6E6E6"/>
<path d="M85.4539 69.1594H60.8211C60.3296 69.1594 59.8582 68.9643 59.5106 68.6169C59.163 68.2696 58.9678 67.7985 58.9678 67.3072C58.9678 66.816 59.163 66.3449 59.5106 65.9976C59.8582 65.6502 60.3296 65.4551 60.8211 65.4551H85.4539C85.6975 65.4548 85.9387 65.5024 86.1639 65.5954C86.389 65.6883 86.5936 65.8247 86.766 65.9967C86.9383 66.1687 87.0751 66.373 87.1684 66.5979C87.2617 66.8228 87.3097 67.0638 87.3097 67.3072C87.3097 67.5507 87.2617 67.7917 87.1684 68.0166C87.0751 68.2415 86.9383 68.4457 86.766 68.6178C86.5936 68.7898 86.389 68.9262 86.1639 69.0191C85.9387 69.112 85.6975 69.1597 85.4539 69.1594Z" fill="#E6E6E6"/>
<path d="M117.647 98.4317H60.8211C60.5777 98.4317 60.3367 98.3838 60.1118 98.2907C59.887 98.1976 59.6827 98.0612 59.5106 97.8892C59.3385 97.7172 59.202 97.5131 59.1089 97.2884C59.0157 97.0637 58.9678 96.8228 58.9678 96.5796C58.9678 96.3364 59.0157 96.0956 59.1089 95.8709C59.202 95.6461 59.3385 95.442 59.5106 95.27C59.6827 95.098 59.887 94.9616 60.1118 94.8685C60.3367 94.7754 60.5777 94.7275 60.8211 94.7275H117.647C117.891 94.7275 118.132 94.7754 118.356 94.8685C118.581 94.9616 118.786 95.098 118.958 95.27C119.13 95.442 119.266 95.6461 119.359 95.8709C119.452 96.0956 119.5 96.3364 119.5 96.5796C119.5 96.8228 119.452 97.0637 119.359 97.2884C119.266 97.5131 119.13 97.7172 118.958 97.8892C118.786 98.0612 118.581 98.1976 118.356 98.2907C118.132 98.3838 117.891 98.4317 117.647 98.4317Z" fill="#E6E6E6"/>
<path d="M117.647 105.75H60.8212C60.3301 105.749 59.8593 105.554 59.5122 105.206C59.1652 104.859 58.9702 104.388 58.9702 103.898C58.9702 103.407 59.1652 102.936 59.5122 102.589C59.8593 102.241 60.3301 102.046 60.8212 102.045H117.647C118.138 102.046 118.609 102.241 118.956 102.589C119.303 102.936 119.498 103.407 119.498 103.898C119.498 104.388 119.303 104.859 118.956 105.206C118.609 105.554 118.138 105.749 117.647 105.75Z" fill="#E6E6E6"/>
<path d="M85.4539 113.069H60.8211C60.3296 113.069 59.8582 112.873 59.5106 112.526C59.163 112.179 58.9678 111.708 58.9678 111.216C58.9678 110.725 59.163 110.254 59.5106 109.907C59.8582 109.559 60.3296 109.364 60.8211 109.364H85.4539C85.6975 109.364 85.9387 109.412 86.1639 109.505C86.389 109.597 86.5936 109.734 86.766 109.906C86.9383 110.078 87.0751 110.282 87.1684 110.507C87.2617 110.732 87.3097 110.973 87.3097 111.216C87.3097 111.46 87.2617 111.701 87.1684 111.926C87.0751 112.151 86.9383 112.355 86.766 112.527C86.5936 112.699 86.389 112.835 86.1639 112.928C85.9387 113.021 85.6975 113.069 85.4539 113.069Z" fill="#E6E6E6"/>
<path d="M38.1506 74.6588H3.94008C3.02324 74.6577 2.14425 74.2933 1.49594 73.6454C0.847641 72.9976 0.482969 72.1191 0.481934 71.2029V48.7747C0.482969 47.8585 0.847641 46.9801 1.49594 46.3322C2.14425 45.6843 3.02324 45.3199 3.94008 45.3188H38.1506C39.0674 45.3199 39.9464 45.6843 40.5947 46.3322C41.2431 46.9801 41.6077 47.8585 41.6088 48.7747V71.2029C41.6077 72.1191 41.2431 72.9976 40.5947 73.6454C39.9464 74.2933 39.0674 74.6578 38.1506 74.6588Z" fill="#E6E6E6"/>
<path d="M35.7465 48.1216H6.34551C5.51068 48.1224 4.71024 48.4541 4.11978 49.0438C3.52931 49.6336 3.19703 50.4334 3.1958 51.2677V68.7096C3.19697 69.544 3.52919 70.3439 4.11963 70.934C4.71006 71.524 5.51051 71.856 6.34551 71.8572H25.0935C28.7527 71.8536 32.2609 70.3993 34.8483 67.8136C37.4358 65.2278 38.891 61.7219 38.8946 58.0651V51.2677C38.8937 50.4335 38.5618 49.6338 37.9716 49.044C37.3814 48.4542 36.5811 48.1225 35.7465 48.1216Z" fill="white"/>
<path d="M27.4376 54.0183L27.3497 54.1766C28.1318 52.2504 27.4207 49.8768 26.0254 48.4243C24.6303 46.9719 22.6907 46.3079 20.7808 46.0444C19.363 45.8489 17.8914 45.8545 16.5433 46.3735C14.5911 47.1251 13.0996 48.8649 11.8543 50.6748C11.2846 51.5026 10.7246 52.4463 10.7813 53.481C10.834 54.4412 11.4043 55.256 11.8714 56.0706C12.3385 56.8853 12.7285 57.896 12.3933 58.7851C12.1935 59.3149 11.7714 59.6965 11.4288 60.13C11.0863 60.5634 10.8045 61.1493 10.9699 61.6931C11.0434 61.9011 11.1696 62.0866 11.3363 62.2313C11.5029 62.3761 11.7043 62.4751 11.9207 62.5188C12.3398 62.5887 12.7684 62.5785 13.1838 62.4889L24.0699 60.8452C24.8097 60.7335 25.5114 60.4447 26.1153 60.0034C26.7192 59.5621 27.2074 58.9814 27.5382 58.3109C27.869 57.6403 28.0326 56.8997 28.0151 56.1523C27.9976 55.4048 27.7994 54.6727 27.4376 54.0183Z" fill="#2F2E41"/>
<path d="M19.3403 60.7693C22.2798 60.7693 24.6627 58.3879 24.6627 55.4503C24.6627 52.5127 22.2798 50.1313 19.3403 50.1313C16.4008 50.1313 14.0178 52.5127 14.0178 55.4503C14.0178 58.3879 16.4008 60.7693 19.3403 60.7693Z" fill="#FFB9B9"/>
<path d="M33.2291 69.1989C30.8701 70.9291 28.0195 71.8604 25.0934 71.8569H8.76087C8.72801 71.8303 8.6967 71.8037 8.66382 71.7756L10.187 67.5281C10.5312 66.7737 11.0744 66.1272 11.7584 65.6578C12.4423 65.1885 13.2412 64.914 14.0694 64.8639L15.0384 64.8044L17.349 62.8129C17.349 62.8129 23.5748 62.5908 23.4825 62.4844L27.2537 64.7512L27.2506 64.7356L28.7331 64.8263C29.5613 64.8763 30.3602 65.1506 31.0442 65.62C31.7282 66.0894 32.2714 66.736 32.6154 67.4906L33.2291 69.1989Z" fill="#6C63FF"/>
<path d="M24.3886 50.5137C24.2512 49.7873 23.5099 49.4551 22.8748 49.2941C21.0325 48.8244 19.1161 48.7193 17.2334 48.9846C15.861 49.1802 14.456 49.6114 13.4602 50.682C12.6572 51.5834 12.2023 52.7415 12.177 53.948C12.1364 54.6695 12.2977 55.388 12.6429 56.0229C12.7972 56.3185 13.0259 56.569 13.3063 56.7496C13.5868 56.9303 13.9094 57.0349 14.2426 57.0533L14.3064 57.2753C16.9787 56.9032 19.4609 55.2416 21.0243 52.7785C20.7309 53.8255 20.147 54.7681 19.3401 55.4975C21.1442 54.7761 22.7124 53.5682 23.8701 52.0085C24.1862 51.5892 24.4931 51.0663 24.3886 50.5137Z" fill="#2F2E41"/>
<path d="M38.1506 33.0382H3.94008C3.02324 33.0371 2.14425 32.6727 1.49594 32.0248C0.847641 31.3769 0.482969 30.4985 0.481934 29.5823V7.15413C0.482969 6.23789 0.847641 5.35948 1.49594 4.7116C2.14425 4.06372 3.02324 3.69928 3.94008 3.69824H38.1506C39.0674 3.69928 39.9464 4.06371 40.5947 4.71159C41.2431 5.35947 41.6077 6.23789 41.6088 7.15413V29.5823C41.6077 30.4985 41.2431 31.3769 40.5947 32.0248C39.9464 32.6727 39.0674 33.0371 38.1506 33.0382Z" fill="#CCCCCC"/>
<path d="M35.7465 6.50098H6.34551C5.51074 6.50198 4.71041 6.83371 4.11999 7.42345C3.52957 8.0132 3.19722 8.81282 3.1958 9.64705V27.089C3.19697 27.9234 3.52919 28.7233 4.11963 29.3134C4.71006 29.9034 5.51051 30.2354 6.34551 30.2366H25.0935C28.7529 30.2336 32.2615 28.7796 34.8491 26.1937C37.4366 23.6078 38.8916 20.1015 38.8946 16.4445V9.64704C38.8937 8.81292 38.5618 8.01321 37.9716 7.4234C37.3814 6.83359 36.5811 6.50185 35.7465 6.50098Z" fill="white"/>
<path d="M13.9791 9.88468C15.3638 9.88468 16.4864 8.7629 16.4864 7.37911C16.4864 5.99532 15.3638 4.87354 13.9791 4.87354C12.5944 4.87354 11.4719 5.99532 11.4719 7.37911C11.4719 8.7629 12.5944 9.88468 13.9791 9.88468Z" fill="#2F2E41"/>
<path d="M17.9908 19.4058C21.4987 19.4058 24.3424 16.564 24.3424 13.0584C24.3424 9.55279 21.4987 6.71094 17.9908 6.71094C14.4829 6.71094 11.6392 9.55279 11.6392 13.0584C11.6392 16.564 14.4829 19.4058 17.9908 19.4058Z" fill="#2F2E41"/>
<path d="M18.5164 19.4039C21.3669 19.4039 23.6778 17.0946 23.6778 14.2459C23.6778 11.3972 21.3669 9.08789 18.5164 9.08789C15.6658 9.08789 13.355 11.3972 13.355 14.2459C13.355 17.0946 15.6658 19.4039 18.5164 19.4039Z" fill="#9E616A"/>
<path d="M22.0215 8.98806C21.117 8.43705 20.0811 8.13898 19.0219 8.12503C17.9627 8.11107 16.9193 8.38174 16.0006 8.90874C15.0819 9.43573 14.3218 10.1997 13.7998 11.1208C13.2777 12.0418 13.0128 13.0861 13.0328 14.1445C15.6628 14.8044 18.4258 15.3094 21.2305 14.3023L21.8928 12.6823L22.2833 14.3035C23.1374 14.6524 23.9938 14.9476 24.8501 14.3002C24.8851 13.2448 24.6422 12.1987 24.1459 11.2665C23.6495 10.3343 22.9169 9.54865 22.0215 8.98806Z" fill="#2F2E41"/>
<path d="M11.6448 0.577423C10.7645 0.201955 9.79668 0.0801429 8.85074 0.22577C7.9048 0.371397 7.01851 0.778652 6.29213 1.40146C5.58174 2.04204 5.04094 2.84828 4.71795 3.74835C4.39495 4.64843 4.29979 5.61438 4.44092 6.56012C4.72522 8.4837 5.89539 10.1402 6.97403 11.7585C8.05267 13.3768 9.10646 15.1501 9.10525 17.0945C9.10439 18.495 8.54781 19.838 7.55754 20.829C6.56727 21.82 5.22416 22.378 3.82275 22.3808C5.46754 23.0884 7.18425 23.8099 8.97302 23.726C10.7618 23.6421 12.6367 22.493 12.9284 20.7273C13.1387 19.4551 12.5141 18.2146 11.9932 17.0349C11.1447 15.1126 10.5314 13.0951 10.1666 11.026C9.99262 10.0385 9.87935 9.00029 10.2015 8.05067C10.4581 7.34697 10.9341 6.74428 11.5594 6.33147C12.1847 5.91867 12.9263 5.7176 13.6746 5.75792L14.2656 5.22654C14.3669 4.27546 14.1688 3.31651 13.6991 2.4832C13.2293 1.6499 12.5112 0.98372 11.6448 0.577423Z" fill="#2F2E41"/>
<path d="M32.1692 28.2811C30.0325 29.564 27.5861 30.2402 25.0933 30.2366H7.40049L7.37231 30.2132L8.89549 25.9642C9.23979 25.2099 9.78306 24.5636 10.467 24.0945C11.151 23.6255 11.9498 23.3513 12.7779 23.3015L13.7469 23.242L16.0575 21.2505C16.0575 21.2505 22.2833 21.0268 22.191 20.9204L25.9622 23.1873L25.959 23.1732L27.4415 23.2639C28.2697 23.3132 29.0688 23.5872 29.7528 24.0563C30.4369 24.5255 30.98 25.1721 31.3239 25.9266L32.1692 28.2811Z" fill="#6C63FF"/>
<path d="M38.1506 118.568H3.94008C3.02323 118.567 2.14425 118.202 1.49594 117.555C0.847641 116.907 0.482964 116.028 0.481934 115.112V92.6839C0.482969 91.7677 0.847641 90.8893 1.49594 90.2414C2.14425 89.5935 3.02324 89.2291 3.94008 89.228H38.1506C39.0674 89.2291 39.9464 89.5935 40.5947 90.2414C41.2431 90.8893 41.6077 91.7677 41.6088 92.6839V115.112C41.6077 116.028 41.2431 116.907 40.5947 117.555C39.9464 118.202 39.0674 118.567 38.1506 118.568Z" fill="#E6E6E6"/>
<path d="M35.7465 92.0303H6.34551C5.51068 92.0311 4.71024 92.3628 4.11978 92.9525C3.52931 93.5423 3.19703 94.3421 3.1958 95.1763V112.618C3.19697 113.453 3.52919 114.253 4.11963 114.843C4.71006 115.433 5.51051 115.765 6.34551 115.766H25.0935C28.7527 115.762 32.2609 114.308 34.8484 111.722C37.4358 109.137 38.891 105.631 38.8946 101.974V95.1763C38.8938 94.3422 38.5618 93.5425 37.9716 92.9527C37.3814 92.3629 36.5811 92.0311 35.7465 92.0303Z" fill="white"/>
<path d="M21.0198 103.126C24.9308 103.126 28.1014 99.9576 28.1014 96.0491C28.1014 92.1406 24.9308 88.9722 21.0198 88.9722C17.1088 88.9722 13.9382 92.1406 13.9382 96.0491C13.9382 99.9576 17.1088 103.126 21.0198 103.126Z" fill="#2F2E41"/>
<path d="M21.0228 104.056C24.5167 104.056 27.3491 101.225 27.3491 97.7337C27.3491 94.2421 24.5167 91.4116 21.0228 91.4116C17.5289 91.4116 14.6965 94.2421 14.6965 97.7337C14.6965 101.225 17.5289 104.056 21.0228 104.056Z" fill="#FFB8B8"/>
<path d="M33.6768 112.767C31.2393 114.711 28.2122 115.769 25.0934 115.766H9.31665L10.8132 111.594C11.1575 110.839 11.7007 110.193 12.3846 109.723C13.0686 109.254 13.8674 108.979 14.6956 108.929L15.6646 108.87L17.9752 106.878C17.9752 106.878 24.2011 106.656 24.1087 106.55L27.8799 108.817L27.8768 108.801L29.3593 108.892C30.1875 108.942 30.9865 109.216 31.6704 109.685C32.3544 110.155 32.8976 110.801 33.2416 111.556L33.6768 112.767Z" fill="#6C63FF"/>
<path d="M27.6971 95.5167C27.7415 95.0446 27.7619 94.5707 27.7581 94.0966C27.7839 93.159 27.612 92.2265 27.2535 91.3596C26.8127 90.3998 26.0266 89.6409 25.0515 89.2337C24.0851 88.8442 23.0049 88.8451 22.0392 89.2363C21.1895 88.6519 20.2048 88.2936 19.1781 88.1953C18.6637 88.1541 18.1471 88.2378 17.6721 88.4392C17.1971 88.6406 16.7779 88.9539 16.4502 89.3522C16.3098 89.572 16.1504 89.7791 15.9737 89.9709C15.4682 90.4387 14.7001 90.3712 14.0283 90.2756C14.3297 90.5337 14.631 90.7917 14.9325 91.0498C14.5678 91.145 14.203 91.2403 13.8382 91.3355C14.2639 91.5935 14.6895 91.8515 15.1151 92.1095C13.8794 92.8506 13.3178 94.4684 13.4662 95.9377C13.6065 97.3287 14.2785 98.6007 15.0819 99.7313C15.4024 99.0555 15.3333 98.2468 15.328 97.4856C15.3251 97.2388 15.3401 96.992 15.3731 96.7473C18.088 97.3977 20.9248 97.815 23.8016 96.7821L24.3789 95.3701C24.46 95.3784 24.541 95.3862 24.622 95.3948L24.9565 96.7834C25.7148 97.0932 26.4747 97.3639 27.2349 97.0794C27.2718 97.2939 27.2941 97.5128 27.3112 97.7232C27.3765 97.4715 27.4331 97.218 27.4841 96.9635C27.5846 96.9096 27.6808 96.8482 27.7719 96.7797C27.7903 96.3573 27.7652 95.934 27.6971 95.5167Z" fill="#2F2E41"/>
<path d="M103.646 28.0431C104.818 28.0431 105.768 27.0937 105.768 25.9225C105.768 24.7512 104.818 23.8018 103.646 23.8018C102.474 23.8018 101.524 24.7512 101.524 25.9225C101.524 27.0937 102.474 28.0431 103.646 28.0431Z" fill="#6C63FF"/>
<path d="M110.538 28.0431C111.71 28.0431 112.66 27.0937 112.66 25.9225C112.66 24.7512 111.71 23.8018 110.538 23.8018C109.366 23.8018 108.416 24.7512 108.416 25.9225C108.416 27.0937 109.366 28.0431 110.538 28.0431Z" fill="#6C63FF"/>
<path d="M117.429 28.0431C118.601 28.0431 119.551 27.0937 119.551 25.9225C119.551 24.7512 118.601 23.8018 117.429 23.8018C116.257 23.8018 115.307 24.7512 115.307 25.9225C115.307 27.0937 116.257 28.0431 117.429 28.0431Z" fill="#6C63FF"/>
<path d="M103.646 69.3639C104.818 69.3639 105.768 68.4145 105.768 67.2433C105.768 66.072 104.818 65.1226 103.646 65.1226C102.474 65.1226 101.524 66.072 101.524 67.2433C101.524 68.4145 102.474 69.3639 103.646 69.3639Z" fill="#E6E6E6"/>
<path d="M110.538 69.3639C111.71 69.3639 112.66 68.4145 112.66 67.2433C112.66 66.072 111.71 65.1226 110.538 65.1226C109.366 65.1226 108.416 66.072 108.416 67.2433C108.416 68.4145 109.366 69.3639 110.538 69.3639Z" fill="#E6E6E6"/>
<path d="M117.429 69.3639C118.601 69.3639 119.551 68.4145 119.551 67.2433C119.551 66.072 118.601 65.1226 117.429 65.1226C116.257 65.1226 115.307 66.072 115.307 67.2433C115.307 68.4145 116.257 69.3639 117.429 69.3639Z" fill="#E6E6E6"/>
<path d="M103.646 113.35C104.818 113.35 105.768 112.401 105.768 111.23C105.768 110.058 104.818 109.109 103.646 109.109C102.474 109.109 101.524 110.058 101.524 111.23C101.524 112.401 102.474 113.35 103.646 113.35Z" fill="#E6E6E6"/>
<path d="M110.538 113.35C111.71 113.35 112.66 112.401 112.66 111.23C112.66 110.058 111.71 109.109 110.538 109.109C109.366 109.109 108.416 110.058 108.416 111.23C108.416 112.401 109.366 113.35 110.538 113.35Z" fill="#E6E6E6"/>
<path d="M117.429 113.35C118.601 113.35 119.551 112.401 119.551 111.23C119.551 110.058 118.601 109.109 117.429 109.109C116.257 109.109 115.307 110.058 115.307 111.23C115.307 112.401 116.257 113.35 117.429 113.35Z" fill="#E6E6E6"/>
<path d="M43.2441 27.7519L32.3057 20.8308C32.0968 20.6987 31.8562 20.6252 31.6091 20.6182C31.362 20.6112 31.1175 20.6709 30.9015 20.791C30.6855 20.9111 30.5058 21.0872 30.3815 21.3007C30.2571 21.5142 30.1927 21.7573 30.1949 22.0044L30.3024 33.9381C30.3053 34.2553 30.4178 34.5617 30.621 34.8054C30.8242 35.0491 31.1055 35.2151 31.4171 35.2751C31.7288 35.3352 32.0517 35.2857 32.331 35.135C32.6103 34.9843 32.8288 34.7416 32.9495 34.4482L34.3726 30.9887L38.3407 38.8067C38.5292 39.1766 38.8569 39.4567 39.2519 39.5854C39.6468 39.7141 40.0767 39.6809 40.4472 39.4931C40.8177 39.3053 41.0984 38.9782 41.2278 38.5838C41.3572 38.1893 41.3247 37.7596 41.1374 37.3891L37.079 29.3933L42.2801 30.2683C42.5933 30.321 42.915 30.2637 43.1908 30.1063C43.4665 29.9488 43.6792 29.7008 43.7927 29.4044C43.9062 29.108 43.9136 28.7815 43.8136 28.4803C43.7136 28.1791 43.5124 27.9217 43.2441 27.7519Z" fill="#3F3D56"/>
</g>
<defs>
<clipPath id="clip0_32_770">
<rect width="120" height="119" fill="white"/>
</clipPath>
</defs>
</svg>
