<svg width="140" height="141" viewBox="0 0 140 141" fill="none" xmlns="http://www.w3.org/2000/svg">
<rect opacity="0.1" y="0.00341797" width="140" height="140" rx="39.2683" fill="#4B21EE"/>
<path d="M70.4954 21C57.6559 21 47.2177 31.4376 47.2177 44.2763C47.2177 56.87 57.0678 67.0625 69.9073 67.5035C70.2994 67.4545 70.6914 67.4545 70.9855 67.5035C71.0835 67.5035 71.1325 67.5035 71.2305 67.5035C71.2795 67.5035 71.2795 67.5035 71.3285 67.5035C83.874 67.0625 93.7241 56.87 93.7731 44.2763C93.7731 31.4376 83.3349 21 70.4954 21Z" fill="url(#paint0_linear_707_452)"/>
<path d="M95.3949 80.5329C81.7223 71.4184 59.4247 71.4184 45.6541 80.5329C39.4304 84.6981 36 90.3334 36 96.3608C36 102.388 39.4304 107.974 45.6051 112.091C52.4659 116.697 61.483 119 70.5 119C79.517 119 88.5341 116.697 95.3949 112.091C101.57 107.925 105 102.339 105 96.2628C104.951 90.2354 101.57 84.6491 95.3949 80.5329ZM80.3011 100.036H74.1754V106.161C74.1754 108.17 72.5092 109.836 70.5 109.836C68.4908 109.836 66.8246 108.17 66.8246 106.161V100.036H60.6989C58.6896 100.036 57.0234 98.3699 57.0234 96.3608C57.0234 94.3516 58.6896 92.6856 60.6989 92.6856H66.8246V86.5602C66.8246 84.5511 68.4908 82.885 70.5 82.885C72.5092 82.885 74.1754 84.5511 74.1754 86.5602V92.6856H80.3011C82.3104 92.6856 83.9766 94.3516 83.9766 96.3608C83.9766 98.3699 82.3104 100.036 80.3011 100.036Z" fill="url(#paint1_linear_707_452)"/>
<defs>
<linearGradient id="paint0_linear_707_452" x1="70.5" y1="21" x2="70.5" y2="119" gradientUnits="userSpaceOnUse">
<stop stop-color="#4B21EE"/>
<stop offset="1" stop-color="#8277FF"/>
</linearGradient>
<linearGradient id="paint1_linear_707_452" x1="70.5" y1="21" x2="70.5" y2="119" gradientUnits="userSpaceOnUse">
<stop stop-color="#4B21EE"/>
<stop offset="1" stop-color="#8277FF"/>
</linearGradient>
</defs>
</svg>
