<?xml version="1.0" encoding="UTF-8"?>
<svg width="169px" height="178px" viewBox="0 0 169 178" version="1.1" xmlns="http://www.w3.org/2000/svg" xmlns:xlink="http://www.w3.org/1999/xlink">
    <!-- Generator: Sketch 52.3 (67297) - http://www.bohemiancoding.com/sketch -->
    <title>Mailchimp_Logo-Horizontal_Black</title>
    <desc>Created with Sketch.</desc>
    <defs>
        <filter x="-44.1%" y="-48.9%" width="188.2%" height="202.3%" filterUnits="objectBoundingBox" id="filter-1">
            <feOffset dx="0" dy="6" in="SourceAlpha" result="shadowOffsetOuter1"/>
            <feGaussianBlur stdDeviation="29" in="shadowOffsetOuter1" result="shadowBlurOuter1"/>
            <feColorMatrix values="0 0 0 0 0   0 0 0 0 0   0 0 0 0 0  0 0 0 0.18 0" type="matrix" in="shadowBlurOuter1" result="shadowMatrixOuter1"/>
            <feMerge>
                <feMergeNode in="shadowMatrixOuter1"/>
                <feMergeNode in="SourceGraphic"/>
            </feMerge>
        </filter>
        <polygon id="path-2" points="6.78851308e-05 0.0104990337 62.9479091 0.0104990337 62.9479091 68.983102 6.78851308e-05 68.983102"/>
    </defs>
    <g id="Page-1" stroke="none" stroke-width="1" fill="none" fill-rule="evenodd">
        <g id="Integrations" transform="translate(-259.000000, -457.000000)">
            <g id="Group-17" filter="url(#filter-1)" transform="translate(190.000000, 464.000000)">
                <g id="Group-30-Copy-14">
                    <g id="Rectangle">
                        <g id="Group-7">
                            <g id="Mailchimp_Logo-Horizontal_Black" transform="translate(122.000000, 41.000000)">
                                <path d="M47.8075644,33 C48.1715882,32.9423639 48.5203427,32.939658 48.8407977,33 C49.0262707,32.4347332 49.0582348,31.4600606 48.8912887,30.3987985 C48.6433127,28.8212468 48.3077918,27.8665979 47.6141512,28.015153 C46.9207142,28.163708 46.8950615,29.3066889 47.1430375,30.8842406 C47.2824986,31.771512 47.5308818,32.5299816 47.8075644,33" id="Fill-14" fill="#1A1919"/>
                                <path d="M39.749187,33.680283 C40.3922616,33.9263758 40.7875532,34.089441 40.9421866,33.9468452 C41.0416692,33.8580678 41.0121147,33.6885628 40.8585368,33.4698392 C40.5410897,33.0181324 39.8879877,32.5602157 39.1953038,32.3028533 C37.7785343,31.7713388 36.0889134,31.9482036 34.7853483,32.7644498 C34.3552246,33.0392917 33.9472667,33.4199306 34.0055841,33.6510739 C34.0245835,33.7258217 34.0889701,33.78217 34.2399092,33.8005695 C34.5948272,33.8359885 35.8345335,33.2895244 37.2626498,33.2133967 C38.2706698,33.1595782 39.1058486,33.4344202 39.749187,33.680283" id="Fill-15" fill="#1A1919"/>
                                <path d="M38.3561181,35.0143035 C37.3714341,35.1007136 36.8283848,35.2812953 36.4797912,35.4491138 C36.1823701,35.5936481 35.998459,35.7535328 36.0000097,35.8659867 C36.00063,35.919454 36.0424985,35.9503271 36.0753729,35.9658499 C36.1203428,35.9877543 36.1733761,36 36.2372643,36 C36.4596323,36 36.9577118,35.8887534 36.9577118,35.8887534 C38.3278957,35.6160699 39.231634,35.6491852 40.1273087,35.7059296 C40.6222869,35.7368026 40.8561299,35.7538777 40.9646778,35.6595337 C40.996932,35.6324551 41.0356991,35.5738135 40.9367655,35.4844712 C40.7060238,35.276466 39.7120357,34.9247888 38.3561181,35.0143035" id="Fill-16" fill="#1A1919"/>
                                <path d="M44.6628854,36.8292838 C45.1825435,37.1378309 45.7547702,37.0166263 45.9411719,36.5586131 C46.1273324,36.1008912 45.8570138,35.4794266 45.3371146,35.1705881 C44.8174565,34.8623324 44.2452298,34.9832456 44.0588281,35.4412588 C43.8726676,35.8992721 44.1429862,36.5204453 44.6628854,36.8292838" id="Fill-17" fill="#1A1919"/>
                                <path d="M49.511588,34.0000796 C49.2355257,33.9931805 49.0066037,34.4354176 49.0001397,34.9875815 C48.9936756,35.5399754 49.2123497,35.9930212 49.488412,35.9999204 C49.7644743,36.0068195 49.9935539,35.5645824 49.9998603,35.0124185 C50.0063244,34.4600246 49.7876503,34.0067488 49.511588,34.0000796" id="Fill-18" fill="#1A1919"/>
                                <g id="Group-22">
                                    <mask id="mask-3" fill="white">
                                        <use xlink:href="#path-2"/>
                                    </mask>
                                    <g id="Clip-20"/>
                                    <path d="M16.3584545,46.3750408 C16.2398182,46.2212694 16.0445455,46.2680204 15.8555455,46.3136449 C15.7235455,46.3454694 15.5740909,46.3812367 15.4101818,46.3784204 C15.0589091,46.3713796 14.7613636,46.2164816 14.5944545,45.9514653 C14.3768182,45.6064653 14.3893636,45.0919224 14.6296364,44.5033102 C14.6618182,44.4236082 14.7,44.3354571 14.7417273,44.2394204 C15.1246364,43.3519959 15.7655455,41.8666653 15.0458182,40.4514612 C14.5041818,39.3863265 13.6208182,38.7228 12.5585455,38.5836735 C11.5385455,38.4501796 10.4888182,38.8405224 9.81927273,39.6034653 C8.76272727,40.8071633 8.59745455,42.4451388 8.80172727,43.0238939 C8.87672727,43.2356816 8.99372727,43.2942612 9.07881818,43.3063714 C9.25881818,43.3311551 9.52445455,43.1962531 9.69109091,42.7335306 C9.70309091,42.700298 9.71890909,42.6487592 9.73854545,42.5831388 C9.81272727,42.3386816 9.951,41.8832816 10.1773636,41.5182857 C10.4500909,41.0780939 10.875,40.7750571 11.3738182,40.6646571 C11.8821818,40.5522857 12.4014545,40.6525469 12.8361818,40.9465714 C13.5763636,41.4464694 13.8613636,42.382898 13.5452727,43.2765184 C13.3821818,43.7386776 13.1168182,44.6221592 13.1751818,45.3484898 C13.2935455,46.8177673 14.169,47.4080694 14.9552727,47.4708735 C15.7197273,47.5004449 16.2542727,47.0574367 16.3895455,46.7332776 C16.4691818,46.5417673 16.4018182,46.4251714 16.3584545,46.3750408" id="Fill-19" fill="#1A1919" mask="url(#mask-3)"/>
                                    <path d="M23.6274545,19.3850571 C26.121,16.4090449 29.1910909,13.8219673 31.941,12.3690245 C32.0361818,12.3188939 32.1370909,12.4256327 32.0855455,12.521951 C31.8670909,12.9306 31.4468182,13.8047878 31.3134545,14.4680327 C31.2927273,14.5713918 31.4015455,14.6491224 31.4860909,14.589698 C33.1969091,13.3854367 36.1731818,12.0949959 38.7837273,11.9291143 C38.8958182,11.9220735 38.9500909,12.0704939 38.8609091,12.1411837 C38.4638182,12.4557673 38.0296364,12.8908898 37.7124545,13.3310816 C37.6584545,13.4059959 37.7091818,13.5138612 37.7997273,13.5144245 C39.6327273,13.5279429 42.2168182,14.1903429 43.9011818,15.1659184 C44.0151818,15.2318204 43.9339091,15.4596612 43.8065455,15.4295265 C41.2581818,14.826551 37.0868182,14.368898 32.7537273,15.4602245 C28.8853636,16.4343918 25.9328182,17.9388735 23.7788182,19.5565714 C23.67,19.6385265 23.5393636,19.4901061 23.6274545,19.3850571 Z M46.3314545,49.4701837 C46.4053636,49.4380776 46.4563636,49.3510531 46.4476364,49.2645918 C46.4372727,49.1581347 46.3453636,49.0806857 46.2422727,49.0916694 C46.2422727,49.0916694 40.9202727,49.9050245 35.8928182,48.0045673 C36.4404545,46.1666327 37.8965455,46.8301592 40.0974545,47.0137837 C44.0645455,47.2579592 47.6198182,46.6594898 50.2475455,45.8804939 C52.5245455,45.2059837 55.515,43.875551 57.8378182,41.9821347 C58.6213636,43.7595184 58.8979091,45.7151755 58.8979091,45.7151755 C58.8979091,45.7151755 59.5044545,45.6033673 60.0111818,45.9252735 C60.4900909,46.2297184 60.8413636,46.8622653 60.6013636,48.4979878 C60.1129091,51.5539837 58.8550909,54.0340408 56.7411818,56.3158286 C55.4541818,57.7462408 53.892,58.9899306 52.1045455,59.8942531 C51.1551818,60.4090776 50.1444545,60.8546204 49.0767273,61.2145469 C41.1070909,63.902449 32.9495455,60.9475592 30.3199091,54.6018122 C30.1101818,54.1247265 29.9326364,53.6253918 29.7927273,53.1029633 C28.6720909,48.9212816 29.6233636,43.9042776 32.5971818,40.7463306 C32.5974545,40.746049 32.5969091,40.7449224 32.5971818,40.7446408 C32.7804545,40.5435551 32.9675455,40.306702 32.9675455,40.0087347 C32.9675455,39.7594898 32.8142727,39.4964449 32.6811818,39.3100041 C31.6407273,37.7517306 28.0369091,35.0962163 28.7601818,29.9572653 C29.2797273,26.2653429 32.4062727,23.6653102 35.3214545,23.8193633 C35.5677273,23.8323184 35.8145455,23.8480898 36.0602727,23.8630163 C37.3235455,23.9404653 38.4256364,24.1077551 39.4655455,24.1525347 C41.2060909,24.2302653 42.7712727,23.9689102 44.625,22.3740245 C45.2503636,21.8358245 45.7516364,21.3691592 46.6000909,21.2210204 C46.6892727,21.205249 46.911,21.1230122 47.3544545,21.144698 C47.8069091,21.1694816 48.2378182,21.2979061 48.6248182,21.564049 C50.1111818,22.585249 50.3217273,25.0585469 50.3989091,26.8680367 C50.4428182,27.9007837 50.5639091,30.3997102 50.6050909,31.1170286 C50.6997273,32.7572571 51.1172727,32.9884776 51.9619091,33.2757429 C52.437,33.4374 52.878,33.5576571 53.5279091,33.7460694 C55.4950909,34.3163755 56.6615455,34.8951306 57.3965455,35.6383592 C57.8350909,36.1027714 58.0390909,36.5964735 58.1020909,37.0670816 C58.3339091,38.8146122 56.7880909,40.9733265 52.6960909,42.934898 C48.2228182,45.0786857 42.7960909,45.6216735 39.0466364,45.1904939 C38.7591818,45.1575429 37.7364545,45.037849 37.7329091,45.0372857 C34.7337273,44.6201878 33.0229091,48.622751 34.8229091,51.3650082 C35.9830909,53.1322531 39.1429091,54.2824408 42.3043636,54.2830041 C49.5531818,54.2841306 55.1247273,51.0873184 57.1971818,48.3267551 C57.2593636,48.2442367 57.2653636,48.2352245 57.363,48.0825796 C57.465,47.9240204 57.381,47.8364327 57.2539091,47.9262735 C55.5605455,49.122649 48.0395455,53.8726653 39.9946364,52.4436612 C39.9946364,52.4436612 39.0171818,52.2777796 38.1248182,51.9192612 C37.4157273,51.6345306 35.9315455,50.9293224 35.7512727,49.3569673 C42.2435455,51.4303469 46.3314545,49.4701837 46.3314545,49.4701837 Z M10.6718182,33.5373796 C8.41390909,33.9908082 6.42381818,35.3122286 5.20690909,37.1374898 C4.47954545,36.5111388 3.12463636,35.2984286 2.88518182,34.825849 C0.942545455,31.0164857 5.00563636,23.6095469 7.84390909,19.4270204 C14.8584545,9.08997551 25.845,1.26565714 30.9308182,2.68536735 C31.7577273,2.92700816 34.4959091,6.20549388 34.4959091,6.20549388 C34.4959091,6.20549388 29.4122727,9.11842041 24.6976364,13.1787184 C18.345,18.2298 13.5463636,25.5711184 10.6718182,33.5373796 Z M14.4657273,51.0183184 C14.124,51.0785878 13.7754545,51.1025265 13.4239091,51.0937959 C10.0268182,50.9997306 6.357,47.8412204 5.99236364,44.0957878 C5.58927273,39.9557878 7.63772727,36.7696776 11.2647273,36.0140571 C11.6983636,35.9239347 12.2222727,35.8718327 12.7873636,35.902249 C14.8194545,36.0171551 17.8142727,37.6283755 18.4982727,42.2001184 C19.1042727,46.2488694 18.1418182,50.3708449 14.4657273,51.0183184 Z M60.4865455,43.6874204 C60.4573636,43.5812449 60.2678182,42.8656163 60.0073636,42.0032571 C59.7469091,41.1406163 59.4771818,40.533698 59.4771818,40.533698 C60.522,38.9182531 60.5405455,37.4737592 60.4017273,36.6553347 C60.2533636,35.6411755 59.8445455,34.7768449 59.0203636,33.8835061 C58.1961818,32.9901673 56.5107273,32.0751429 54.1418182,31.3882408 C53.871,31.3096653 52.9775455,31.0564776 52.899,31.0319755 C52.893,30.9790286 52.8335455,28.0061143 52.7798182,26.7300367 C52.7405455,25.8074082 52.6639091,24.3671388 52.2310909,22.9482735 C51.7153636,21.0283837 50.8167273,19.3481633 49.6952727,18.2731714 C52.7904545,14.9600449 54.7227273,11.3100857 54.7180909,8.17861224 C54.7090909,2.15730612 47.5478182,0.335142857 38.7226364,4.10902041 C38.7133636,4.11296327 36.8661818,4.92181224 36.8528182,4.92885306 C36.8443636,4.92040408 33.4723636,1.50363673 33.4216364,1.45801224 C23.3596364,-7.60492653 -8.09972727,28.5048857 1.95845455,37.2749265 L4.15663636,39.1979143 C3.58636364,40.7232367 3.36245455,42.4707673 3.54545455,44.350102 C3.78027273,46.7636939 4.986,49.0773061 6.94009091,50.8648286 C8.79518182,52.5622286 11.2341818,53.6363755 13.6009091,53.6344041 C17.5150909,62.9488408 26.4583636,68.6628857 36.9441818,68.9845102 C48.1922727,69.3295102 57.6343636,63.8790735 61.5908182,54.0886776 C61.8496364,53.4014939 62.9479091,50.3055061 62.9479091,47.5725429 C62.9479091,44.8257796 61.4440909,43.6874204 60.4865455,43.6874204 Z" id="Fill-21" fill="#1A1919" mask="url(#mask-3)"/>
                                </g>
                            </g>
                        </g>
                    </g>
                </g>
            </g>
        </g>
    </g>
</svg>